<svg version="1.1" xmlns="http://www.w3.org/2000/svg" xmlns:xlink="http://www.w3.org/1999/xlink" width="481.37586" height="353.23149" viewBox="0,0,481.37586,353.23149"><g transform="translate(-80,27.15)"><g data-paper-data="{&quot;isPaintingLayer&quot;:true}" fill-rule="nonzero" stroke-linecap="butt" stroke-linejoin="miter" stroke-miterlimit="10" stroke-dasharray="" stroke-dashoffset="0" style="mix-blend-mode: normal"><path d="M80,315v-270h480v270z" fill="#ecd3aa" stroke="none" stroke-width="0"/><text transform="translate(245.37401,262.92523) scale(0.14744,0.14744)" font-size="117" xml:space="preserve" fill-opacity="0.62745" fill="#7a520d" fill-rule="nonzero" stroke="#574731" stroke-width="0" stroke-linecap="butt" stroke-linejoin="miter" stroke-miterlimit="10" stroke-dasharray="" stroke-dashoffset="0" font-family="HarmonyOS Sans SC Black,HarmonyOS Sans SC Black_MSFontService,sans-serif" font-weight="900" text-anchor="start" style="mix-blend-mode: normal"><tspan x="0" dy="0">生活愉快，工程师！</tspan></text><text transform="translate(281.26305,203.24268) scale(0.66219,0.66219)" font-size="117" xml:space="preserve" fill="#a58247" fill-rule="nonzero" stroke="#574731" stroke-width="0" stroke-linecap="butt" stroke-linejoin="miter" stroke-miterlimit="10" stroke-dasharray="" stroke-dashoffset="0" font-family="HarmonyOS Sans SC Black,HarmonyOS Sans SC Black_MSFontService,sans-serif" font-weight="900" text-anchor="start" style="mix-blend-mode: normal"><tspan x="0" dy="0">终</tspan></text><text transform="translate(241.0813,190.04268) scale(0.28612,0.28612)" font-size="117" xml:space="preserve" fill-opacity="0.90196" fill="#7a520d" fill-rule="nonzero" stroke="#574731" stroke-width="0" stroke-linecap="butt" stroke-linejoin="miter" stroke-miterlimit="10" stroke-dasharray="" stroke-dashoffset="0" font-family="HarmonyOS Sans SC Black,HarmonyOS Sans SC Black_MSFontService,sans-serif" font-weight="900" text-anchor="start" style="mix-blend-mode: normal"><tspan x="0" dy="0">NEKO.exe</tspan></text><g fill-opacity="0.53725" fill="#a68347" stroke-width="0"><path d="M480.36527,298.17808c5.77486,-24.01767 -17.15659,-37.96418 5.55653,-54.39057c17.3047,-12.51506 32.83003,1.04741 58.19974,6.98505c32.847,7.68763 12.45824,47.72711 -8.85558,36.12201c-7.04157,-3.83408 -19.34198,6.25343 -17.26349,16.9117c6.05319,31.03938 -46.22149,30.0743 -37.63723,-5.6281z" stroke="#c2a470"/><path d="M439.02194,285.36839c-4.80774,-7.0662 -2.97681,-16.69186 4.08946,-21.49944c7.06615,-4.80764 16.69186,-2.97681 21.49958,4.08939c4.80774,7.0662 5.02765,20.44127 -2.03862,25.24885c-7.06615,4.80764 -18.74268,-0.77262 -23.55052,-7.83886z" stroke="none"/><path d="M441.0746,240.06508c-5.0542,-7.42857 -10.13462,-22.05743 -2.70605,-27.11163c7.42857,-5.0542 19.30166,-0.2824 24.35585,7.14617c5.0542,7.42857 10.33681,22.17199 2.90823,27.22617c-7.42857,5.0542 -19.50373,0.1679 -24.55793,-7.26067z" stroke="none"/><path d="M473.09449,214.78633c-5.0542,-7.42857 -11.61646,-22.17411 -4.18788,-27.22829c7.42857,-5.0542 19.82364,-0.50929 24.87784,6.91928c5.0542,7.42857 12.07064,24.13991 4.64217,29.19414c-7.42857,5.0542 -20.27788,-1.45642 -25.33206,-8.88499z" stroke="none"/><path d="M518.87596,225.53607c-5.0542,-7.42857 -6.24306,-16.7132 1.18541,-21.76744c7.42857,-5.0542 17.54786,-3.12936 22.6021,4.29911c5.0542,7.42857 7.19708,20.81594 -0.23155,25.87024c-7.42857,5.0542 -18.50173,-0.97345 -23.55596,-8.40192z" stroke="none"/></g><g fill-opacity="0.53725" fill="#a68347" stroke-width="0"><path d="M146.36527,142.17807c5.77486,-24.01767 -17.15659,-37.96418 5.55652,-54.39057c17.30469,-12.51505 32.83003,1.0474 58.19974,6.98504c32.847,7.68763 12.45824,47.72711 -8.85558,36.12201c-7.04156,-3.83408 -19.34198,6.25342 -17.26349,16.9117c6.05319,31.03938 -46.22149,30.0743 -37.63723,-5.6281z" stroke="#c2a470"/><path d="M105.02194,129.36839c-4.80774,-7.06621 -2.9768,-16.69186 4.08947,-21.49944c7.06615,-4.80764 16.69185,-2.97681 21.49958,4.0894c4.80774,7.0662 5.02765,20.44126 -2.03862,25.24885c-7.06615,4.80764 -18.74268,-0.77261 -23.55053,-7.83885z" stroke="none"/><path d="M107.07461,84.06508c-5.0542,-7.42857 -10.13463,-22.05743 -2.70605,-27.11164c7.42858,-5.0542 19.30167,-0.2824 24.35585,7.14618c5.0542,7.42857 10.33681,22.17199 2.90823,27.22617c-7.42858,5.0542 -19.50373,0.1679 -24.55793,-7.26067z" stroke="none"/><path d="M139.09449,58.78633c-5.0542,-7.42857 -11.61646,-22.17411 -4.18788,-27.2283c7.42858,-5.0542 19.82364,-0.50929 24.87784,6.91928c5.0542,7.42857 12.07065,24.13991 4.64218,29.19414c-7.42858,5.0542 -20.27789,-1.45641 -25.33206,-8.88499z" stroke="none"/><path d="M184.87596,69.53607c-5.0542,-7.42857 -6.24306,-16.7132 1.18541,-21.76744c7.42858,-5.0542 17.54786,-3.12937 22.60209,4.2991c5.0542,7.42857 7.19708,20.81594 -0.23154,25.87025c-7.42858,5.0542 -18.50173,-0.97344 -23.55596,-8.40192z" stroke="none"/></g><text transform="translate(85.39999,291.12006) scale(1.88617,1.88617)" font-size="40" xml:space="preserve" fill-opacity="0.09412" fill="#7a520d" fill-rule="nonzero" stroke="none" stroke-width="1" stroke-linecap="butt" stroke-linejoin="miter" stroke-miterlimit="10" stroke-dasharray="" stroke-dashoffset="0" font-family="HarmonyOS Sans SC Black,HarmonyOS Sans SC Black_MSFontService,sans-serif" font-weight="normal" text-anchor="start" style="mix-blend-mode: normal"><tspan x="0" dy="0">（・∀・）</tspan></text><text transform="translate(140,-5.7) scale(0.5,0.5)" font-size="40" xml:space="preserve" fill-opacity="0.09412" fill="#7a520d" fill-rule="nonzero" stroke="none" stroke-width="1" stroke-linecap="butt" stroke-linejoin="miter" stroke-miterlimit="10" stroke-dasharray="" stroke-dashoffset="0" font-family="HarmonyOS Sans SC Black,HarmonyOS Sans SC Black_MSFontService,sans-serif" font-weight="normal" text-anchor="start" style="mix-blend-mode: normal"><tspan x="0" dy="0"> </tspan></text></g></g></svg>