<svg version="1.1" xmlns="http://www.w3.org/2000/svg" xmlns:xlink="http://www.w3.org/1999/xlink" width="640" height="360" viewBox="0,0,640,360"><g data-paper-data="{&quot;isPaintingLayer&quot;:true}" fill-rule="nonzero" stroke-width="0" stroke-linecap="butt" stroke-linejoin="miter" stroke-miterlimit="10" stroke-dasharray="" stroke-dashoffset="0" style="mix-blend-mode: normal"><path d="M0,360v-360h640v360z" fill="#313131" stroke="none"/><g fill-opacity="0.58039" fill="#3d2020"><path d="M212.75274,298.48692c3.3146,-13.78543 -9.84737,-21.79031 3.18928,-31.21857c9.93238,-7.18327 18.84346,0.60118 33.40492,4.00921c18.8532,4.41247 7.15066,27.39394 -5.08284,20.73296c-4.04165,-2.20065 -11.10172,3.58928 -9.90873,9.70681c3.47435,17.81568 -26.52976,17.26175 -21.60265,-3.23036z" stroke="#c2a470"/><path d="M189.0229,291.13454c-2.7595,-4.05579 -1.7086,-9.58063 2.34723,-12.34004c4.05576,-2.75944 9.58063,-1.7086 12.34012,2.34719c2.7595,4.05579 2.88572,11.73268 -1.17011,14.49209c-4.05576,2.75944 -10.75774,-0.44346 -13.5173,-4.49927z" stroke="none"/><path d="M190.20107,265.13179c-2.90096,-4.26378 -5.81697,-12.66031 -1.55319,-15.56127c4.26378,-2.90096 11.07858,-0.16209 13.97953,4.10169c2.90096,4.26378 5.93302,12.72606 1.66924,15.62701c-4.26378,2.90096 -11.19456,0.09637 -14.09552,-4.16741z" stroke="none"/><path d="M208.57953,250.62254c-2.90096,-4.26378 -6.6675,-12.72728 -2.40372,-15.62823c4.26378,-2.90096 11.37818,-0.29232 14.27914,3.97146c2.90096,4.26378 6.92819,13.85559 2.66447,16.75657c-4.26378,2.90096 -11.6389,-0.83594 -14.53985,-5.09972z" stroke="none"/><path d="M234.85673,256.79257c-2.90096,-4.26378 -3.58333,-9.59288 0.68039,-12.49386c4.26378,-2.90096 10.07195,-1.79616 12.97293,2.46756c2.90096,4.26378 4.13091,11.94773 -0.1329,14.84875c-4.26378,2.90096 -10.61944,-0.55873 -13.52042,-4.82245z" stroke="none"/></g><g fill-opacity="0.58039" fill="#3d2020"><path d="M350.31021,200.19508c7.25229,-12.18314 -2.94498,-23.73005 12.30066,-28.86978c11.61538,-3.91592 17.8182,6.1603 30.71478,13.73188c16.69764,9.80315 -1.29171,28.28235 -11.00064,18.29417c-3.20759,-3.29987 -11.66672,0.13683 -12.3409,6.33303c-1.96329,18.04481 -30.45445,8.62106 -19.67394,-9.48926z" stroke="#c2a470"/><path d="M329.82668,186.13849c-1.43312,-4.69153 1.20838,-9.65648 5.89992,-11.0895c4.69148,-1.43307 9.65648,1.20838 11.08959,5.89991c1.43312,4.69153 -0.72215,12.06075 -5.41369,13.49377c-4.69148,1.43307 -10.1427,-3.61266 -11.57587,-8.30422z" stroke="none"/><path d="M338.66041,161.65387c-1.50656,-4.93211 -1.80234,-13.81565 3.12977,-15.32221c4.93211,-1.50656 10.62863,3.12944 12.13518,8.06154c1.50656,4.93211 1.89368,13.91285 -3.03842,15.4194c-4.93211,1.50656 -10.71992,-3.22659 -12.22647,-8.1587z" stroke="none"/><path d="M360.51399,153.24513c-1.50656,-4.93211 -2.59478,-14.13175 2.33732,-15.6383c4.93211,-1.50656 10.95337,3.09388 12.45993,8.02599c1.50656,4.93211 2.50927,15.28662 -2.42279,16.79322c-4.93211,1.50656 -10.8679,-4.24872 -12.37445,-9.18082z" stroke="none"/><path d="M383.78088,166.92769c-1.50656,-4.93211 -0.57844,-10.22394 4.35361,-11.73054c4.93211,-1.50656 10.15167,1.27041 11.65827,6.20246c1.50656,4.93211 0.40331,12.63527 -4.52884,14.14188c-4.93211,1.50656 -9.97644,-3.68175 -11.48304,-8.6138z" stroke="none"/></g><g fill-opacity="0.58039" fill="#3d2020"><path d="M161.72921,136.03553c12.09154,-7.404 8.44493,-22.37121 24.33002,-19.8197c12.10259,1.94392 12.89924,13.74943 20.78591,26.45579c10.21114,16.45131 -14.31416,24.42672 -18.25452,11.06631c-1.30178,-4.41397 -10.38811,-5.31209 -13.87029,-0.14278c-10.14085,15.05433 -30.96527,-6.55347 -12.99117,-17.55959z" stroke="#c2a470"/><path d="M150.1486,114.05708c0.91661,-4.81914 5.56637,-7.98269 10.38547,-7.06599c4.81907,0.91664 7.9827,5.56636 7.06607,10.38549c-0.91661,4.81914 -6.25575,10.33677 -11.07485,9.42007c-4.81907,-0.91664 -7.29329,-7.92045 -6.37671,-12.73964z" stroke="none"/><path d="M169.36841,96.50345c0.96366,-5.06624 4.83897,-13.06541 9.90521,-12.10175c5.06624,0.96366 7.94835,7.71912 6.98469,12.78535c-0.96366,5.06624 -4.8034,13.19396 -9.86963,12.2303c-5.06624,-0.96366 -7.9839,-7.84761 -7.02024,-12.91384z" stroke="none"/><path d="M192.62354,99.2394c0.96366,-5.06624 4.28491,-13.71418 9.35114,-12.75052c5.06624,0.96366 8.25229,7.83889 7.28863,12.90512c-0.96366,5.06624 -4.89841,14.69635 -9.96462,13.73275c-5.06624,-0.96366 -7.63885,-8.82104 -6.67518,-13.88727z" stroke="none"/><path d="M206.84145,122.18305c0.96366,-5.06624 4.24939,-9.31699 9.3156,-8.35339c5.06624,0.96366 8.39202,5.85186 7.42842,10.91808c-0.96366,5.06624 -5.52732,11.36932 -10.59362,10.40568c-5.06624,-0.96366 -7.114,-7.90416 -6.1504,-12.97037z" stroke="none"/></g><g fill-opacity="0.58039" fill="#3d2020"><path d="M483.15561,287.22669c-12.92589,-5.82633 -23.24405,5.61268 -30.0768,-8.95303c-5.20579,-11.09735 4.10337,-18.40108 10.16616,-32.07198c7.84967,-17.70017 28.24675,-1.91864 19.422,8.8587c-2.91551,3.56057 1.45683,11.57622 7.68951,11.54455c18.15106,-0.09232 12.01358,29.28259 -7.20082,20.62178z" stroke="#c2a470"/><path d="M471.50848,309.16996c-4.49911,1.95506 -9.7312,-0.10734 -11.68617,-4.60647c-1.95501,-4.49907 0.10733,-9.7312 4.60644,-11.68625c4.49911,-1.95506 12.06496,-0.64797 14.01993,3.85116c1.95501,4.49907 -2.44111,10.4865 -6.94025,12.44162z" stroke="none"/><path d="M446.18117,303.16511c-4.72983,2.05527 -13.52277,3.35491 -15.57803,-1.37491c-2.05527,-4.72983 1.90598,-10.91459 6.6358,-12.96985c4.72983,-2.05527 13.60899,-3.45668 15.66426,1.27314c2.05527,4.72983 -1.99217,11.0163 -6.722,13.07157z" stroke="none"/><path d="M435.3523,282.40404c-4.72983,2.05527 -13.74711,4.17805 -15.80237,-0.55177c-2.05527,-4.72983 1.83389,-11.23323 6.56371,-13.28849c4.72983,-2.05527 14.90424,-4.22384 16.95954,0.50594c2.05527,4.72983 -2.99097,11.27904 -7.72079,13.33431z" stroke="none"/><path d="M446.31267,257.73766c-4.72983,2.05527 -10.09272,1.73225 -12.14802,-2.99752c-2.05527,-4.72983 0.1129,-10.23023 4.84267,-12.28553c4.72983,-2.05527 12.50837,-1.83125 14.56369,2.89862c2.05527,4.72983 -2.52857,10.32914 -7.25834,12.38444z" stroke="none"/></g><g fill-opacity="0.58039" fill="#3d2020"><path d="M240.39851,79.95136c13.06794,-5.50034 11.71489,-20.84585 27.03522,-15.93322c11.67232,3.74281 10.68357,15.53379 16.56858,29.28216c7.61953,17.80044 -17.82658,21.99484 -19.7118,8.19364c-0.62281,-4.5596 -9.47055,-6.81467 -13.69089,-2.22815c-12.29056,13.35708 -29.62667,-11.13807 -10.20115,-19.31441z" stroke="#c2a470"/><path d="M232.25674,56.48065c1.6313,-4.62635 6.70412,-7.05426 11.33042,-5.42288c4.62629,1.63131 7.05426,6.70412 5.42296,11.33046c-1.6313,4.62635 -7.73985,9.27782 -12.36616,7.64644c-4.62629,-1.63131 -6.01851,-8.92767 -4.38724,-13.55408z" stroke="none"/><path d="M253.89896,42.01878c1.71498,-4.86356 6.74978,-12.18856 11.61334,-10.47358c4.86356,1.71498 6.6964,8.8272 4.98141,13.69075c-1.71498,4.86356 -6.73396,12.321 -11.59751,10.60601c-4.86356,-1.71498 -6.7122,-8.95956 -4.99722,-13.82312z" stroke="none"/><path d="M276.47766,48.22268c1.71498,-4.86356 6.29964,-12.91332 11.1632,-11.19833c4.86356,1.71498 6.97885,8.99133 5.26387,13.85489c-1.71498,4.86356 -7.05394,13.79199 -11.91748,12.07707c-4.86356,-1.71498 -6.22462,-9.87 -4.50963,-14.73355z" stroke="none"/><path d="M287.08148,73.04444c1.71498,-4.86356 5.6029,-8.57153 10.46644,-6.85661c4.86356,1.71498 7.41597,7.04796 5.70105,11.9115c-1.71498,4.86356 -7.17509,10.4082 -12.03871,8.69324c-4.86356,-1.71498 -5.8437,-8.88458 -4.12878,-13.74812z" stroke="none"/></g></g></svg>