<svg version="1.1" xmlns="http://www.w3.org/2000/svg" xmlns:xlink="http://www.w3.org/1999/xlink" width="495.06252" height="285.92061" viewBox="0,0,495.06252,285.92061"><defs><linearGradient x1="305.72964" y1="260.03243" x2="305.72964" y2="315.03953" gradientUnits="userSpaceOnUse" id="color-1"><stop offset="0" stop-color="#523f3f"/><stop offset="1" stop-color="#322727"/></linearGradient><linearGradient x1="342.07223" y1="287.37271" x2="465.47809" y2="287.37271" gradientUnits="userSpaceOnUse" id="color-2"><stop offset="0" stop-color="#503838" stop-opacity="0.61176"/><stop offset="1" stop-color="#634343" stop-opacity="0.73333"/></linearGradient><linearGradient x1="510.71096" y1="248.43582" x2="510.71096" y2="279.54012" gradientUnits="userSpaceOnUse" id="color-3"><stop offset="0" stop-color="#433333"/><stop offset="1" stop-color="#5e4646"/></linearGradient><linearGradient x1="463.43195" y1="244.96992" x2="463.43195" y2="283.36152" gradientUnits="userSpaceOnUse" id="color-4"><stop offset="0" stop-color="#322727"/><stop offset="1" stop-color="#664d4d"/></linearGradient><linearGradient x1="133.85709" y1="79.20011" x2="164.96141" y2="79.20011" gradientUnits="userSpaceOnUse" id="color-5"><stop offset="0" stop-color="#433333"/><stop offset="1" stop-color="#5e4646"/></linearGradient><linearGradient x1="130.3912" y1="126.47912" x2="168.78282" y2="126.47912" gradientUnits="userSpaceOnUse" id="color-6"><stop offset="0" stop-color="#322727"/><stop offset="1" stop-color="#664d4d"/></linearGradient></defs><g transform="translate(-65.72964,-29.11892)"><g data-paper-data="{&quot;isPaintingLayer&quot;:true}" fill-rule="nonzero" stroke-linecap="butt" stroke-linejoin="miter" stroke-miterlimit="10" stroke-dasharray="" stroke-dashoffset="0" style="mix-blend-mode: normal"><path d="M65.72964,315.03953v-55.0071h480v55.0071z" fill="url(#color-1)" stroke="none" stroke-width="0"/><path d="M465.47809,275.90806c0,10.87583 -18.89156,31.32033 -56.07652,31.32033c-37.18497,0 -67.32934,-8.8166 -67.32934,-19.69242c0,-10.87583 30.14437,-19.69242 67.32934,-19.69242c37.18497,0 56.07652,-2.81131 56.07652,8.06452z" fill="url(#color-2)" stroke="none" stroke-width="0"/><path d="M475.1934,251.8912l0.14083,3.5466h85.45793v31.10429h-85.27128l-0.32747,3.5466l-10.82647,-0.05953l-0.16382,-16.61696z" fill-opacity="0.51373" fill="#3d2f2f" stroke="none" stroke-width="0"/><path d="M467.16492,248.43582h87.09204v31.10429h-87.09204z" fill="url(#color-3)" stroke="#310000" stroke-width="0.5"/><path d="M457.9665,244.96992h10.93094v38.39161h-10.93094z" fill="url(#color-4)" stroke="#2f0001" stroke-width="0.5"/><path d="M101.04118,285.05584l-4.97997,-26.25602l47.45507,-9.00079l4.97997,26.25602l-38.76307,7.35218l-7.35934,8.61232l2.64398,-7.71796z" fill-opacity="0.61176" fill="#700000" stroke="#000000" stroke-width="0"/><path d="M99.30289,283.15507l-4.97997,-26.25602l47.45507,-9.00079l4.97997,26.25602l-38.76307,7.35218l-7.35934,8.61232l2.64398,-7.71796z" fill="#9a8f7b" stroke="#680000" stroke-width="1"/><text transform="translate(104.29149,288.48608) rotate(-10.7397) scale(0.16226,0.16226)" font-size="117" xml:space="preserve" fill="#530000" fill-rule="nonzero" stroke="#574731" stroke-width="0" stroke-linecap="butt" stroke-linejoin="miter" stroke-miterlimit="10" stroke-dasharray="" stroke-dashoffset="0" font-family="HarmonyOS Sans SC Black,HarmonyOS Sans SC Black_MSFontService,sans-serif" font-weight="900" text-anchor="start" style="mix-blend-mode: normal"><tspan x="0" dy="0">ERROR</tspan></text><path d="M154.07551,132.12418l26.44746,3.83542l-6.93212,47.80108l-26.44746,-3.83541l5.66241,-39.04571l-5.74864,-9.76141l6.43745,5.01167z" fill-opacity="0.61176" fill="#700000" stroke="#000000" stroke-width="0"/><path d="M156.4385,131.09907l26.44746,3.83541l-6.93212,47.80109l-26.44746,-3.83542l5.66241,-39.04571l-5.74864,-9.76141l6.43745,5.01167z" fill="#9a8f7b" stroke="#680000" stroke-width="1"/><text transform="translate(149.77424,134.0813) rotate(98.25194) scale(0.16226,0.16226)" font-size="117" xml:space="preserve" fill="#530000" fill-rule="nonzero" stroke="#574731" stroke-width="0" stroke-linecap="butt" stroke-linejoin="miter" stroke-miterlimit="10" stroke-dasharray="" stroke-dashoffset="0" font-family="HarmonyOS Sans SC Black,HarmonyOS Sans SC Black_MSFontService,sans-serif" font-weight="900" text-anchor="start" style="mix-blend-mode: normal"><tspan x="0" dy="0">ERROR</tspan></text><path d="M137.31249,114.71768l3.5466,-0.14082v-85.45794h31.10429v85.27128l3.5466,0.32747l-0.05952,10.82647l-16.61695,0.16382z" fill-opacity="0.51373" fill="#3d2f2f" stroke="none" stroke-width="0"/><path d="M133.85709,122.74615v-87.09203h31.10429v87.09203z" fill="url(#color-5)" stroke="#310000" stroke-width="0.5"/><path d="M130.3912,131.94457v-10.93094h38.39161v10.93094z" fill="url(#color-6)" stroke="#2f0001" stroke-width="0.5"/><path d="M472.11767,286.46576l2.49162,-22.60094l21.433,1.16795l-1.86871,24.46965z" data-paper-data="{&quot;index&quot;:null}" fill-opacity="0.68235" fill="#703737" stroke="none" stroke-width="0"/><path d="M481.22375,294.5968l-2.99871,-39.26623l34.39333,-1.87419l3.99828,36.26753z" fill-opacity="0.68235" fill="#703737" stroke="none" stroke-width="0"/><g data-paper-data="{&quot;index&quot;:null}" fill="#dcb1b1" stroke-width="0"><path d="M495.26424,270.36884l-0.14959,-1.054l10.99177,-1.56005l0.14959,1.054z" stroke="#ffffff"/><g stroke="none"><path d="M506.31266,269.02925l-4.91438,-3.69277l0.64222,-0.85468l4.91438,3.69277z"/><path d="M506.95416,268.1695l-3.69277,4.91438l-0.85468,-0.64222l3.69277,-4.91438z"/></g></g></g></g></svg>