<svg version="1.1" xmlns="http://www.w3.org/2000/svg" xmlns:xlink="http://www.w3.org/1999/xlink" width="88.00142" height="87.99944" viewBox="0,0,88.00142,87.99944"><g transform="translate(-327.08009,-95.46045)"><g data-paper-data="{&quot;isPaintingLayer&quot;:true}" fill-rule="nonzero" stroke="none" stroke-width="1" stroke-linecap="butt" stroke-linejoin="miter" stroke-miterlimit="10" stroke-dasharray="" stroke-dashoffset="0" style="mix-blend-mode: normal"><path d="M415.08151,98.69853c0,0.82849 -0.31661,1.65698 -0.94721,2.29021l-80.84848,80.84584c-1.26384,1.26384 -3.31657,1.26384 -4.58041,0c-1.26384,-1.26384 -1.26384,-3.31657 0,-4.58041l80.84584,-80.84584c1.26384,-1.26384 3.31657,-1.26384 4.58041,0c0.6306,0.63324 0.94985,1.46173 0.94985,2.29021z" fill="#d99e82"/><path d="M344.89515,147.82977c9.83892,0 17.81506,7.97614 17.81506,17.81506c0,9.83892 -7.97614,17.81506 -17.81506,17.81506c-9.83892,0 -17.81506,-7.97614 -17.81506,-17.81506c0,-9.83892 7.97614,-17.81506 17.81506,-17.81506z" fill="#fcb1e3"/><path d="M381.67368,150.29919c-2.26111,9.57565 -11.85671,15.50524 -21.43235,13.24412c-9.57565,-2.26111 -15.50524,-11.85671 -13.24412,-21.43235c2.26111,-9.57565 11.85671,-15.50524 21.43235,-13.24412c9.57565,2.26111 15.50524,11.85671 13.24412,21.43235z" fill="#ffd983"/><path d="M383.76533,108.95696c9.83892,0 17.81769,7.97878 17.81769,17.81769c0,9.83892 -7.97878,17.81506 -17.81769,17.81506c-9.83892,0 -17.81506,-7.97614 -17.81506,-17.81506c0,-9.83892 7.97878,-17.81769 17.81506,-17.81769z" fill="#a6d388"/><path d="M415.08151,98.69853c0,0.82849 -0.31661,1.65698 -0.94721,2.29021l-19.84141,19.84141c-1.26384,1.26648 -3.31657,1.26648 -4.58041,0c-1.26384,-1.26648 -1.26384,-3.31393 0,-4.58041l19.84141,-19.84141c1.26384,-1.26384 3.31657,-1.26384 4.58041,0c0.62796,0.63324 0.94721,1.46173 0.94721,2.29021z" fill="#d99e82"/></g></g></svg>