<svg version="1.1" xmlns="http://www.w3.org/2000/svg" xmlns:xlink="http://www.w3.org/1999/xlink" width="640" height="360" viewBox="0,0,640,360"><g data-paper-data="{&quot;isPaintingLayer&quot;:true}" fill-rule="nonzero" stroke-linecap="butt" stroke-linejoin="miter" stroke-miterlimit="10" stroke-dasharray="" stroke-dashoffset="0" style="mix-blend-mode: normal"><path d="M0,360v-360h640v360z" fill="#8f641f" stroke="none" stroke-width="0"/><text transform="translate(42.46933,116.88868) scale(0.77297,0.77297)" font-size="117" xml:space="preserve" fill="#fafafa" fill-rule="nonzero" stroke="none" stroke-width="1" stroke-linecap="butt" stroke-linejoin="miter" stroke-miterlimit="10" stroke-dasharray="" stroke-dashoffset="0" font-family="HarmonyOS Sans SC Black,HarmonyOS Sans SC Black_MSFontService,sans-serif" font-weight="900" text-anchor="start" style="mix-blend-mode: normal"><tspan x="0" dy="0">:(</tspan></text><text transform="translate(42.46933,162.19847) scale(0.12064,0.12064)" font-size="117" xml:space="preserve" fill="#fafafa" fill-rule="nonzero" stroke="none" stroke-width="1" stroke-linecap="butt" stroke-linejoin="miter" stroke-miterlimit="10" stroke-dasharray="" stroke-dashoffset="0" font-family="HarmonyOS Sans SC Black,HarmonyOS Sans SC Black_MSFontService,sans-serif" font-weight="900" text-anchor="start" style="mix-blend-mode: normal"><tspan x="0" dy="0">你的设备出现问题，需要重启。</tspan><tspan x="0" dy="140.4px">我们只收集某些错误信息，然后你可以点击屏幕以继续。</tspan></text><text transform="translate(42.46933,204.78254) scale(0.12064,0.12064)" font-size="117" xml:space="preserve" fill="#fafafa" fill-rule="nonzero" stroke="none" stroke-width="1" stroke-linecap="butt" stroke-linejoin="miter" stroke-miterlimit="10" stroke-dasharray="" stroke-dashoffset="0" font-family="HarmonyOS Sans SC Black,HarmonyOS Sans SC Black_MSFontService,sans-serif" font-weight="900" text-anchor="start" style="mix-blend-mode: normal"><tspan x="0" dy="0">100% 完成</tspan></text><path d="M44.7382,317.02499v-91h91v91z" fill="#fafafa" stroke="none" stroke-width="0"/><text transform="translate(144.41218,234.45073) scale(0.0985,0.0985)" font-size="117" xml:space="preserve" fill="#fafafa" fill-rule="nonzero" stroke="none" stroke-width="1" stroke-linecap="butt" stroke-linejoin="miter" stroke-miterlimit="10" stroke-dasharray="" stroke-dashoffset="0" font-family="HarmonyOS Sans SC Black,HarmonyOS Sans SC Black_MSFontService,sans-serif" font-weight="900" text-anchor="start" style="mix-blend-mode: normal"><tspan x="0" dy="0">有关此问题的详细信息和可能的解决方法，请访问</tspan><tspan x="0" dy="140.4px">https://www.ccw.site/student/237439574</tspan><tspan x="0" dy="140.4px"> </tspan><tspan x="0" dy="140.4px">如果致电支持喵员，请向它们提供以下信息：</tspan><tspan x="0" dy="140.4px">中止代码：MEMORY_MANAGEMENT</tspan></text><g fill-opacity="0.47451" fill="#8f641f" stroke-width="0"><path d="M81.43052,292.71569c2.88426,-11.99565 -8.56887,-18.96124 2.77521,-27.16541c8.64284,-6.25065 16.39698,0.52312 29.0679,3.48868c16.40546,3.83959 6.22228,23.83735 -4.42292,18.04117c-3.51691,-1.91494 -9.66037,3.12328 -8.62227,8.44656c3.02327,15.50264 -23.08536,15.02063 -18.79794,-2.81096z" stroke="#c2a470"/><path d="M60.78156,286.31788c-2.40123,-3.52922 -1.48677,-8.33677 2.04248,-10.73791c3.5292,-2.40118 8.33677,-1.48677 10.73798,2.04245c2.40123,3.52922 2.51106,10.20941 -1.01819,12.61056c-3.5292,2.40118 -9.36105,-0.38588 -11.76233,-3.91512z" stroke="none"/><path d="M61.80676,263.6911c-2.52432,-3.7102 -5.06174,-11.0166 -1.35153,-13.54093c3.71021,-2.52433 9.64023,-0.14104 12.16455,3.56916c2.52433,3.7102 5.16272,11.07382 1.45252,13.59813c-3.71021,2.52432 -9.74115,0.08386 -12.26547,-3.62635z" stroke="none"/><path d="M77.79912,251.06561c-2.52433,-3.71021 -5.80184,-11.07488 -2.09164,-13.59919c3.71021,-2.52433 9.90093,-0.25437 12.42526,3.45584c2.52433,3.71021 6.02869,12.0567 2.31853,14.58104c-3.71021,2.52433 -10.1278,-0.72741 -12.65212,-4.43762z" stroke="none"/><path d="M100.66471,256.43458c-2.52433,-3.71021 -3.1181,-8.34742 0.59205,-10.87176c3.71021,-2.52433 8.7643,-1.56296 11.28864,2.14719c2.52433,3.71021 3.59459,10.39654 -0.11565,12.92092c-3.71021,2.52432 -9.2407,-0.48619 -11.76504,-4.19635z" stroke="none"/></g><text transform="translate(64.54569,275.42075) scale(0.11099,0.11099)" font-size="117" xml:space="preserve" fill="#8f641f" fill-rule="nonzero" stroke="none" stroke-width="1" stroke-linecap="butt" stroke-linejoin="miter" stroke-miterlimit="10" stroke-dasharray="" stroke-dashoffset="0" font-family="HarmonyOS Sans SC Black,HarmonyOS Sans SC Black_MSFontService,sans-serif" font-weight="900" text-anchor="start" style="mix-blend-mode: normal"><tspan x="0" dy="0">Not yet.</tspan></text></g></svg>