<svg version="1.1" xmlns="http://www.w3.org/2000/svg" xmlns:xlink="http://www.w3.org/1999/xlink" width="49.75" height="176.47666" viewBox="0,0,49.75,176.47666"><g transform="translate(-295.125,-28.39835)"><g data-paper-data="{&quot;isPaintingLayer&quot;:true}" fill-rule="nonzero" stroke-width="0" stroke-linejoin="miter" stroke-miterlimit="10" stroke-dasharray="" stroke-dashoffset="0" style="mix-blend-mode: normal"><path d="M295.125,204.87501v-49.75h49.75v49.75z" fill-opacity="0.90196" fill="#bf9c63" stroke="none" stroke-linecap="butt"/><path d="M310.49683,42.90318v-14.50483h19.00634v14.50484z" fill="none" stroke="none" stroke-linecap="butt"/><path d="M308.68079,191.31922v-22.63842h22.63842v22.63842z" fill="#ffffff" stroke="none" stroke-linecap="butt"/><path d="M310.20043,189.79958v-19.59914h19.59914v19.59914z" fill="#dccfb8" stroke="none" stroke-linecap="butt"/><path d="M309.86377,190.74049v-6.85747l6.14315,-4.14305l6.57174,5.78599l4.71451,-3.71446l2.78585,2.07153v6.35745" fill="#ffffff" stroke="#ffffff" stroke-linecap="round"/><path d="M321.50718,176.27551c0,-1.2427 1.00741,-2.25011 2.25011,-2.25011c1.2427,0 2.25011,1.00741 2.25011,2.25011c0,1.2427 -1.00741,2.25011 -2.25011,2.25011c-1.2427,0 -2.25011,-1.00741 -2.25011,-2.25011z" fill="#ffffff" stroke="none" stroke-linecap="butt"/></g></g></svg>