<svg version="1.1" xmlns="http://www.w3.org/2000/svg" xmlns:xlink="http://www.w3.org/1999/xlink" width="640" height="360" viewBox="0,0,640,360"><g data-paper-data="{&quot;isPaintingLayer&quot;:true}" fill-rule="nonzero" stroke="none" stroke-linecap="butt" stroke-linejoin="miter" stroke-miterlimit="10" stroke-dasharray="" stroke-dashoffset="0" style="mix-blend-mode: normal"><path d="M0,360v-360h640v360z" fill="#fae8c9" stroke-width="0"/><path d="M116.5,149c0,-64.61732 52.38268,-117 117,-117c64.61732,0 117,52.38268 117,117c0,64.61732 -52.38268,117 -117,117c-64.61732,0 -117,-52.38268 -117,-117z" fill-opacity="0.67451" fill="#8f641f" stroke-width="0"/><path d="M35.5,220c0,-43.07821 34.92179,-78 78,-78c43.07821,0 78,34.92179 78,78c0,43.07821 -34.92179,78 -78,78c-43.07821,0 -78,-34.92179 -78,-78z" fill-opacity="0.77255" fill="#8f641f" stroke-width="0"/><path d="M468,216c0,-26.50967 21.49033,-48 48,-48c26.50967,0 48,21.49033 48,48c0,26.50967 -21.49033,48 -48,48c-26.50967,0 -48,-21.49033 -48,-48z" fill-opacity="0.58431" fill="#8f641f" stroke-width="0"/><path d="M462,168c0,-13.80712 11.19288,-25 25,-25c13.80712,0 25,11.19288 25,25c0,13.80712 -11.19288,25 -25,25c-13.80712,0 -25,-11.19288 -25,-25z" fill-opacity="0.83922" fill="#8f641f" stroke-width="0"/><path d="M304.5,220c0,-13.80712 11.19288,-25 25,-25c13.80712,0 25,11.19288 25,25c0,13.80712 -11.19288,25 -25,25c-13.80712,0 -25,-11.19288 -25,-25z" fill-opacity="0.43922" fill="#8f641f" stroke-width="0"/><text transform="translate(303.64069,316.12751) scale(0.09601,0.09601)" font-size="117" xml:space="preserve" fill="#8e641f" fill-rule="nonzero" stroke="none" stroke-width="1" stroke-linecap="butt" stroke-linejoin="miter" stroke-miterlimit="10" stroke-dasharray="" stroke-dashoffset="0" font-family="HarmonyOS Sans SC Black,HarmonyOS Sans SC Black_MSFontService,sans-serif" font-weight="900" text-anchor="start" style="mix-blend-mode: normal"><tspan x="0" dy="0">系统无内置存档功能，请保证足够时间（约10分钟）以完整体验。</tspan></text></g></svg>