<svg version="1.1" xmlns="http://www.w3.org/2000/svg" xmlns:xlink="http://www.w3.org/1999/xlink" width="628.48648" height="293.68205" viewBox="0,0,628.48648,293.68205"><g transform="translate(-5.75676,-29.78041)"><g data-paper-data="{&quot;isPaintingLayer&quot;:true}" fill-rule="nonzero" stroke-linecap="butt" stroke-linejoin="miter" stroke-miterlimit="10" stroke-dasharray="" stroke-dashoffset="0" style="mix-blend-mode: normal"><path d="M14.17898,322.46246c-4.09918,0 -7.42222,-3.32304 -7.42222,-7.42222v-168.73025c0,-4.09918 3.32304,-7.42222 7.42222,-7.42222h108.63904c4.09918,0 7.42222,3.32304 7.42222,7.42222v168.73025c0,4.09918 -3.32304,7.42222 -7.42222,7.42222z" fill-opacity="0.57255" fill="#8f641f" stroke="#8f641f" stroke-width="2"/><path d="M141.8066,322.46246c-4.09918,0 -7.42222,-3.32304 -7.42222,-7.42222v-276.83761c0,-4.09918 3.32304,-7.42222 7.42222,-7.42222h484.01442c4.09918,0 7.42222,3.32304 7.42222,7.42222v276.83761c0,4.09918 -3.32304,7.42222 -7.42222,7.42222z" fill="none" stroke="#bfa67f" stroke-width="2"/><g fill-opacity="0.4" fill="#deccad" stroke-width="0"><path d="M92.8509,240.79692c-13.78543,-3.3146 -21.79031,9.84737 -31.21857,-3.18928c-7.18327,-9.93238 0.60118,-18.84346 4.00921,-33.40492c4.41247,-18.8532 27.39394,-7.15066 20.73296,5.08284c-2.20065,4.04165 3.58928,11.10172 9.70681,9.90873c17.81568,-3.47435 17.26175,26.52976 -3.23036,21.60265z" stroke="#c2a470"/><path d="M85.49852,264.52676c-4.05579,2.7595 -9.58063,1.7086 -12.34004,-2.34723c-2.75944,-4.05576 -1.7086,-9.58063 2.34719,-12.34012c4.05579,-2.7595 11.73268,-2.88572 14.49209,1.17011c2.75944,4.05576 -0.44346,10.75774 -4.49927,13.5173z" stroke="none"/><path d="M59.49577,263.34859c-4.26378,2.90096 -12.66031,5.81697 -15.56127,1.55319c-2.90096,-4.26378 -0.16209,-11.07858 4.10169,-13.97953c4.26378,-2.90096 12.72606,-5.93302 15.62701,-1.66924c2.90096,4.26378 0.09637,11.19456 -4.16741,14.09552z" stroke="none"/><path d="M44.98652,244.97013c-4.26378,2.90096 -12.72728,6.6675 -15.62823,2.40372c-2.90096,-4.26378 -0.29232,-11.37818 3.97146,-14.27914c4.26378,-2.90096 13.85559,-6.92819 16.75657,-2.66447c2.90096,4.26378 -0.83594,11.6389 -5.09972,14.53985z" stroke="none"/><path d="M51.15655,218.69293c-4.26378,2.90096 -9.59288,3.58333 -12.49386,-0.68039c-2.90096,-4.26378 -1.79616,-10.07195 2.46756,-12.97293c4.26378,-2.90096 11.94773,-4.13091 14.84875,0.1329c2.90096,4.26378 -0.55873,10.61944 -4.82245,13.52042z" stroke="none"/></g></g></g></svg>