<svg version="1.1" xmlns="http://www.w3.org/2000/svg" xmlns:xlink="http://www.w3.org/1999/xlink" width="628.48648" height="293.68205" viewBox="0,0,628.48648,293.68205"><g transform="translate(-5.75676,-29.78041)"><g data-paper-data="{&quot;isPaintingLayer&quot;:true}" fill-rule="nonzero" stroke-linecap="butt" stroke-linejoin="miter" stroke-miterlimit="10" stroke-dasharray="" stroke-dashoffset="0" style="mix-blend-mode: normal"><path d="M14.17898,322.46246c-4.09918,0 -7.42222,-3.32304 -7.42222,-7.42222v-168.73025c0,-4.09918 3.32304,-7.42222 7.42222,-7.42222h108.63904c4.09918,0 7.42222,3.32304 7.42222,7.42222v168.73025c0,4.09918 -3.32304,7.42222 -7.42222,7.42222z" fill-opacity="0.57255" fill="#8f641f" stroke="#8f641f" stroke-width="2"/><path d="M141.8066,322.46246c-4.09918,0 -7.42222,-3.32304 -7.42222,-7.42222v-276.83761c0,-4.09918 3.32304,-7.42222 7.42222,-7.42222h484.01442c4.09918,0 7.42222,3.32304 7.42222,7.42222v276.83761c0,4.09918 -3.32304,7.42222 -7.42222,7.42222z" fill="none" stroke="#bfa67f" stroke-width="2"/><g fill-opacity="0.4" fill="#deccad" stroke-width="0"><path d="M58.37668,255.0275c3.3146,-13.78543 -9.84737,-21.79031 3.18928,-31.21857c9.93238,-7.18327 18.84346,0.60118 33.40492,4.00921c18.8532,4.41247 7.15066,27.39394 -5.08284,20.73296c-4.04165,-2.20065 -11.10172,3.58928 -9.90873,9.70681c3.47435,17.81568 -26.52976,17.26175 -21.60265,-3.23036z" stroke="#c2a470"/><path d="M34.64684,247.67512c-2.7595,-4.05579 -1.7086,-9.58063 2.34723,-12.34004c4.05576,-2.75944 9.58063,-1.7086 12.34012,2.34719c2.7595,4.05579 2.88572,11.73268 -1.17011,14.49209c-4.05576,2.75944 -10.75774,-0.44346 -13.5173,-4.49927z" stroke="none"/><path d="M35.82501,221.67237c-2.90096,-4.26378 -5.81697,-12.66031 -1.55319,-15.56127c4.26378,-2.90096 11.07858,-0.16209 13.97953,4.10169c2.90096,4.26378 5.93302,12.72606 1.66924,15.62701c-4.26378,2.90096 -11.19456,0.09637 -14.09552,-4.16741z" stroke="none"/><path d="M54.20347,207.16312c-2.90096,-4.26378 -6.6675,-12.72728 -2.40372,-15.62823c4.26378,-2.90096 11.37818,-0.29232 14.27914,3.97146c2.90096,4.26378 6.92819,13.85559 2.66447,16.75657c-4.26378,2.90096 -11.6389,-0.83594 -14.53985,-5.09972z" stroke="none"/><path d="M80.48067,213.33315c-2.90096,-4.26378 -3.58333,-9.59288 0.68039,-12.49386c4.26378,-2.90096 10.07195,-1.79616 12.97293,2.46756c2.90096,4.26378 4.13091,11.94773 -0.1329,14.84875c-4.26378,2.90096 -10.61944,-0.55873 -13.52042,-4.82245z" stroke="none"/></g><text transform="translate(340.83443,182.16477) scale(0.15793,0.15793)" font-size="117" xml:space="preserve" fill-opacity="0.57255" fill="#8f641f" fill-rule="nonzero" stroke="#574731" stroke-width="0" stroke-linecap="butt" stroke-linejoin="miter" stroke-miterlimit="10" stroke-dasharray="" stroke-dashoffset="0" font-family="HarmonyOS Sans SC Black,HarmonyOS Sans SC Black_MSFontService,sans-serif" font-weight="900" text-anchor="start" style="mix-blend-mode: normal"><tspan x="0" dy="0">¯\_(ツ)_/¯</tspan></text></g></g></svg>