<svg version="1.1" xmlns="http://www.w3.org/2000/svg" xmlns:xlink="http://www.w3.org/1999/xlink" width="49.75" height="176.47666" viewBox="0,0,49.75,176.47666"><g transform="translate(-295.125,-28.39835)"><g data-paper-data="{&quot;isPaintingLayer&quot;:true}" fill-rule="nonzero" stroke-width="0" stroke-linejoin="miter" stroke-miterlimit="10" stroke-dasharray="" stroke-dashoffset="0" style="mix-blend-mode: normal"><path d="M295.125,204.87501v-49.75h49.75v49.75z" fill-opacity="0.90196" fill="#bf9c63" stroke="none" stroke-linecap="butt"/><path d="M310.49683,42.90318v-14.50483h19.00634v14.50484z" fill="none" stroke="none" stroke-linecap="butt"/><path d="M308.11183,186.43717v-20.32792h23.77634v20.32792h-5.20561l0.33725,7.45359l-4.89018,-7.45359z" fill="#ffffff" stroke="none" stroke-linecap="butt"/><g fill="#ba975d"><path d="M313.17247,177.28032c0,-3.60156 2.9707,-6.26593 6.57226,-6.26593c3.60156,0 7.0828,2.4091 7.0828,6.01066c0,3.60156 -3.48124,5.65328 -7.0828,5.65328c-3.60156,0 -6.57226,-1.79646 -6.57226,-5.39801z" stroke="none" stroke-linecap="butt"/><path d="M313.88611,174.42406l-0.29164,-3.95345l3.4015,1.33339" stroke="#000000" stroke-linecap="round"/><path d="M322.88636,171.804l3.4015,-1.33339l-0.29164,3.95345" data-paper-data="{&quot;index&quot;:null}" stroke="#000000" stroke-linecap="round"/></g></g></g></svg>