<svg version="1.1" xmlns="http://www.w3.org/2000/svg" xmlns:xlink="http://www.w3.org/1999/xlink" width="76.43695" height="54.56253" viewBox="0,0,76.43695,54.56253"><g transform="translate(-285.25221,-152.71873)"><g data-paper-data="{&quot;isPaintingLayer&quot;:true}" fill-rule="nonzero" stroke-width="0" stroke-linecap="butt" stroke-linejoin="miter" stroke-miterlimit="10" stroke-dasharray="" stroke-dashoffset="0" style="mix-blend-mode: normal"><path d="M285.3565,185.36897l42.25083,-18.6108l34.05395,21.89417l-42.25084,18.6108z" fill="#fff0d6" stroke="none"/><path d="M285.3565,179.23915l42.25083,-19.35413l34.05395,22.51361l-42.25084,17.99136z" fill="#ffe8bf" stroke="none"/><path d="M285.25221,185.39926l0.11435,-6.19688l34.03272,21.11009v6.96879z" fill="#896726" stroke="none"/><path d="M319.37391,207.26636v-6.96879l42.27237,-17.96298l0.04288,6.42369z" data-paper-data="{&quot;index&quot;:null}" fill="#be985b" stroke="none"/><g fill-opacity="0.6902" fill="#dead58"><path d="M292.80142,171.78591c4.45824,-2.72992 3.11371,-8.24845 8.97068,-7.30768c4.46233,0.71674 4.75605,5.06953 7.66394,9.75446c3.76492,6.06573 -5.27774,9.00633 -6.7306,4.08024c-0.47997,-1.62747 -3.83018,-1.95861 -5.11408,-0.05264c-3.73901,5.55064 -11.41715,-2.41632 -4.78995,-6.47437z" stroke="#c2a470"/><path d="M288.53156,163.68229c0.33797,-1.77685 2.05237,-2.94328 3.8292,-2.60528c1.77683,0.33797 2.94329,2.05236 2.60532,3.82921c-0.33797,1.77685 -2.30654,3.81126 -4.08339,3.47325c-1.77683,-0.33797 -2.6891,-2.92034 -2.35115,-4.69721z" stroke="none"/><path d="M295.61805,157.21011c0.35531,-1.86796 1.78417,-4.81732 3.65213,-4.46201c1.86796,0.35531 2.93062,2.84611 2.57532,4.71407c-0.35531,1.86796 -1.77105,4.86472 -3.63901,4.5094c-1.86796,-0.35531 -2.94372,-2.89347 -2.58842,-4.76144z" stroke="none"/><path d="M304.1924,158.21889c0.35531,-1.86796 1.57987,-5.05653 3.44785,-4.70122c1.86796,0.35531 3.04268,2.89026 2.68737,4.75823c-0.35531,1.86796 -1.80609,5.41867 -3.67403,5.06338c-1.86796,-0.35531 -2.81651,-3.25239 -2.4612,-5.12034z" stroke="none"/><path d="M309.43468,166.67839c0.35531,-1.86796 1.56679,-3.43525 3.43474,-3.07996c1.86796,0.35531 3.09421,2.15763 2.73891,4.02558c-0.35531,1.86796 -2.03797,4.19196 -3.90596,3.83666c-1.86796,-0.35531 -2.62299,-2.91433 -2.26769,-4.78228z" stroke="none"/></g><path d="M315.58429,202.25528c-0.14676,-0.93794 0.21511,-1.76124 0.8083,-1.83887c0.59317,-0.07763 1.193,0.61979 1.33976,1.55774c0.14676,0.93794 -0.21512,1.76124 -0.8083,1.83887c-0.59317,0.07763 -1.19299,-0.61979 -1.33975,-1.55774z" fill="#ffe8c0" stroke="none"/></g></g></svg>