<svg version="1.1" xmlns="http://www.w3.org/2000/svg" xmlns:xlink="http://www.w3.org/1999/xlink" width="19.21404" height="142.8114" viewBox="0,0,19.21404,142.8114"><g transform="translate(-310.49683,-50.92087)"><g data-paper-data="{&quot;isPaintingLayer&quot;:true}" fill-rule="nonzero" stroke-width="0" stroke-linecap="butt" stroke-linejoin="miter" stroke-miterlimit="10" stroke-dasharray="" stroke-dashoffset="0" style="mix-blend-mode: normal"><path d="M310.70453,193.73228v-27.003h19.00634v27.003z" fill-opacity="0.00392" fill="#000000" stroke="none"/><path d="M310.49683,65.4257v-14.50483h19.00634v14.50484z" fill="none" stroke="none"/><g fill="#dfcdae"><path d="M315.96073,180.07584c2.12825,-0.32991 2.49334,-2.64126 4.57049,-1.35368c1.58255,0.98098 1.00309,2.68233 1.36466,4.92501c0.46814,2.90367 -3.43633,2.58577 -3.20648,0.48244c0.07594,-0.69489 -1.14506,-1.35271 -1.93576,-0.83201c-2.3027,1.51641 -3.95657,-2.73134 -0.79292,-3.22176z" stroke="#c2a470"/><path d="M315.62421,176.31729c0.4106,-0.62181 1.24753,-0.79302 1.86933,-0.38241c0.6218,0.4106 0.79302,1.24753 0.38242,1.86934c-0.4106,0.62181 -1.48197,1.08262 -2.10377,0.67201c-0.6218,-0.4106 -0.55858,-1.53713 -0.14798,-2.15895z" stroke="none"/><path d="M319.34577,174.98207c0.43166,-0.65369 1.44313,-1.54802 2.09682,-1.11636c0.65369,0.43166 0.66218,1.54726 0.23052,2.20095c-0.43166,0.65369 -1.44567,1.56812 -2.09936,1.13646c-0.65369,-0.43166 -0.65964,-1.56735 -0.22798,-2.22104z" stroke="none"/><path d="M322.44514,176.72696c0.43166,-0.65369 1.40345,-1.67139 2.05714,-1.23973c0.65369,0.43166 0.69777,1.58184 0.26611,2.23553c-0.43166,0.65369 -1.54694,1.77314 -2.20063,1.34149c-0.65369,-0.43166 -0.55429,-1.68359 -0.12263,-2.33728z" stroke="none"/><path d="M323.09481,180.77519c0.43166,-0.65369 1.14105,-1.05714 1.79474,-0.62549c0.65369,0.43166 0.83368,1.31151 0.40203,1.9652c-0.43166,0.65369 -1.44032,1.26999 -2.09402,0.83833c-0.65369,-0.43166 -0.5344,-1.52435 -0.10275,-2.17804z" stroke="none"/></g></g></g></svg>