<svg version="1.1" xmlns="http://www.w3.org/2000/svg" xmlns:xlink="http://www.w3.org/1999/xlink" width="393.28136" height="333" viewBox="0,0,393.28136,333"><g transform="translate(-232.7742,-13.5)"><g data-paper-data="{&quot;isPaintingLayer&quot;:true}" fill-rule="nonzero" stroke-linecap="butt" stroke-linejoin="miter" stroke-miterlimit="10" stroke-dasharray="" stroke-dashoffset="0" style="mix-blend-mode: normal"><path d="M436,344v-328h187.55556v328z" fill="#584a4a" stroke="#817070" stroke-width="5"/><text transform="translate(476.41097,304.55737) scale(0.1961,0.1961)" font-size="117" xml:space="preserve" fill-opacity="0.56471" fill="#290000" fill-rule="nonzero" stroke="#574731" stroke-width="0" stroke-linecap="butt" stroke-linejoin="miter" stroke-miterlimit="10" stroke-dasharray="" stroke-dashoffset="0" font-family="HarmonyOS Sans SC Black,HarmonyOS Sans SC Black_MSFontService,sans-serif" font-weight="900" text-anchor="start" style="mix-blend-mode: normal"><tspan x="0" dy="0">¯\_(ツ)_/¯</tspan></text><text transform="translate(233.0242,172.78015) scale(0.5,0.5)" font-size="40" xml:space="preserve" fill-opacity="0.56471" fill="#290000" fill-rule="nonzero" stroke="none" stroke-width="1" stroke-linecap="butt" stroke-linejoin="miter" stroke-miterlimit="10" stroke-dasharray="" stroke-dashoffset="0" font-family="HarmonyOS Sans SC Black,HarmonyOS Sans SC Black_MSFontService,sans-serif" font-weight="normal" text-anchor="start" style="mix-blend-mode: normal"><tspan x="0" dy="0"> </tspan></text><g fill="#3d2020" stroke-width="0"><path d="M519.6562,130.40287c3.3146,-13.78543 -9.84737,-21.79031 3.18928,-31.21857c9.93238,-7.18327 18.84346,0.60118 33.40492,4.00921c18.8532,4.41247 7.15066,27.39394 -5.08284,20.73296c-4.04165,-2.20065 -11.10172,3.58928 -9.90873,9.70681c3.47435,17.81568 -26.52976,17.26175 -21.60265,-3.23036z" stroke="#c2a470"/><path d="M495.92636,123.05049c-2.7595,-4.05579 -1.7086,-9.58063 2.34723,-12.34004c4.05576,-2.75944 9.58063,-1.7086 12.34012,2.34719c2.7595,4.05579 2.88572,11.73268 -1.17011,14.49209c-4.05576,2.75944 -10.75774,-0.44346 -13.5173,-4.49927z" stroke="none"/><path d="M497.10453,97.04774c-2.90096,-4.26378 -5.81697,-12.66031 -1.55319,-15.56127c4.26378,-2.90096 11.07858,-0.16209 13.97953,4.10169c2.90096,4.26378 5.93302,12.72606 1.66924,15.62701c-4.26378,2.90096 -11.19456,0.09637 -14.09552,-4.16741z" stroke="none"/><path d="M515.48299,82.53849c-2.90096,-4.26378 -6.6675,-12.72728 -2.40372,-15.62823c4.26378,-2.90096 11.37818,-0.29232 14.27914,3.97146c2.90096,4.26378 6.92819,13.85559 2.66447,16.75657c-4.26378,2.90096 -11.6389,-0.83594 -14.53985,-5.09972z" stroke="none"/><path d="M541.76019,88.70852c-2.90096,-4.26378 -3.58333,-9.59288 0.68039,-12.49386c4.26378,-2.90096 10.07195,-1.79616 12.97293,2.46756c2.90096,4.26378 4.13091,11.94773 -0.1329,14.84875c-4.26378,2.90096 -10.61944,-0.55873 -13.52042,-4.82245z" stroke="none"/></g></g></g></svg>